# xmcd
# 
# Track frame offsets:
#     150
#     18571
#     36048
#     60334
#     78076
#     96476
#     112880
#     134540
#     149830
#     164057
# 
# Disc length: 2388
# 
# Revision: 1
# Processed by: cddbd v1.5.2PL0 Copyright (c) Steve Scherf et al.
# Submitted via: fre:ac v1.0.27
# 
DISCID=8909520a
DTITLE=Various Artist - Rec 2
DYEAR=0
DGENRE=Top 40
TTITLE0=Status Quo - Whatever You Want
TTITLE1=Starsailor - Four To The Floor
TTITLE2=Gary Numan - Are Friends Electric
TTITLE3=Gary Numan - Cars
TTITLE4=Goerge Baker Selection - Little Green Bag
TTITLE5=Prince - 1999
TTITLE6=Prince - Money Don't Matter 2 Night
TTITLE7=Adamo - Petit Bonheur
TTITLE8=Wigbert - De Ebbenhout Blues
TTITLE9=Julien Clerc - Si On Chantait
EXTD=
EXTT0=
EXTT1=
EXTT2=
EXTT3=
EXTT4=
EXTT5=
EXTT6=
EXTT7=
EXTT8=
EXTT9=
PLAYORDER=
